<svg width="343" height="145" viewBox="0 0 343 145" fill="none" xmlns="http://www.w3.org/2000/svg">
<path d="M62.2 142.1C60.067 142.1 59 141.033 59 138.9V118.1H3C1 118.1 0 117.1 0 115.1V92.9C0 91.567 0.4 90.167 1.2 88.7L57.8 4.10001C58.6 2.76701 59.867 2.10001 61.6 2.10001H89.6C91.6 2.10001 92.6 3.10001 92.6 5.10001V90.5H103.8C104.733 90.5 105.533 90.833 106.2 91.5C106.867 92.033 107.2 92.767 107.2 93.7V114.9C107.2 115.833 106.867 116.633 106.2 117.3C105.533 117.833 104.733 118.1 103.8 118.1H92.6V138.9C92.6 141.033 91.533 142.1 89.4 142.1H62.2ZM32.6 90.5H59V51.3L32.6 90.5Z" fill="currentColor"/>
<path d="M181.2 144.2C173.867 144.2 166.867 142.867 160.2 140.2C153.534 137.533 147.334 133.467 141.6 128C135.867 122.533 131.334 115 128 105.4C124.667 95.8 123 84.733 123 72.2C123 59.667 124.667 48.6 128 39C131.334 29.4 135.867 21.867 141.6 16.4C147.334 10.933 153.534 6.867 160.2 4.2C166.867 1.4 173.867 0 181.2 0C188.667 0 195.734 1.4 202.4 4.2C209.067 6.867 215.2 10.933 220.8 16.4C226.534 21.867 231.067 29.4 234.4 39C237.734 48.6 239.4 59.667 239.4 72.2C239.4 84.733 237.734 95.8 234.4 105.4C231.067 115 226.534 122.533 220.8 128C215.2 133.467 209.067 137.533 202.4 140.2C195.734 142.867 188.667 144.2 181.2 144.2ZM181.2 113.2C190.267 113.2 196.8 109.467 200.8 102C204.934 94.4 207 84.467 207 72.2C207 59.933 204.934 50 200.8 42.4C196.667 34.8 190.134 31 181.2 31C172.267 31 165.734 34.8 161.6 42.4C157.6 50 155.6 59.933 155.6 72.2C155.6 84.467 157.6 94.4 161.6 102C165.734 109.467 172.267 113.2 181.2 113.2Z" fill="currentColor"/>
<path d="M338.6 118.413C341 118.413 342.2 119.37 342.2 121.283V139.847C342.2 140.612 341.867 141.378 341.2 142.143C340.667 142.781 339.667 143.1 338.2 143.1H259.2C256.667 143.1 255.4 142.016 255.4 139.847V121.283C255.4 119.37 256.533 118.413 258.8 118.413H279.6C281.067 118.413 281.8 117.966 281.8 117.073V36.6957C281.8 34.782 280.867 34.0803 279 34.5906L259.6 40.1404C256.667 40.7784 255.2 39.5663 255.2 36.5043V23.8736C255.2 22.4702 255.4 21.5133 255.8 21.003C256.2 20.4927 257 19.9186 258.2 19.2806L291.6 3.39651C293.467 2.50342 294.933 1.9293 296 1.67414C297.067 1.29138 298.4 1.10001 300 1.10001H313.8C315.8 1.10001 316.8 2.24825 316.8 4.54475V116.499C316.8 117.774 317.4 118.413 318.6 118.413H338.6Z" fill="currentColor"/>
</svg>
