<svg width="163" height="88" viewBox="0 0 163 88" fill="none" xmlns="http://www.w3.org/2000/svg">
<g clip-path="url(#clip0_80_2)">
<mask id="mask0_80_2" style="mask-type:luminance" maskUnits="userSpaceOnUse" x="0" y="0" width="163" height="88">
<path d="M156.242 0H6.74219C3.42848 0 0.742188 2.68629 0.742188 6V82C0.742188 85.3137 3.42848 88 6.74219 88H156.242C159.556 88 162.242 85.3137 162.242 82V6C162.242 2.68629 159.556 0 156.242 0Z" fill="white"/>
</mask>
<g mask="url(#mask0_80_2)">
<path d="M156.242 0H6.74219C3.42848 0 0.742188 2.68629 0.742188 6V82C0.742188 85.3137 3.42848 88 6.74219 88H156.242C159.556 88 162.242 85.3137 162.242 82V6C162.242 2.68629 159.556 0 156.242 0Z" fill="#121212"/>
<path d="M0.742188 6C0.742188 2.68629 3.42848 0 6.74219 0H13.7422V88H6.74219C3.42848 88 0.742188 85.3137 0.742188 82V6Z" fill="#121212"/>
<mask id="mask1_80_2" style="mask-type:luminance" maskUnits="userSpaceOnUse" x="0" y="0" width="29" height="88">
<path d="M0.742188 6C0.742188 2.68629 6.58132 0 13.7842 0H29V88H13.7842C6.58132 88 0.742188 85.3137 0.742188 82V6Z" fill="white"/>
</mask>
<g mask="url(#mask1_80_2)">
<path d="M31.1737 0V88H26.8263V0H31.1737Z" fill="#292929"/>
</g>
<path d="M156.626 6.22887e-06C159.594 6.37372e-06 162 2.6863 162 6V13H29V0L156.626 6.22887e-06Z" fill="#121212"/>
<mask id="mask2_80_2" style="mask-type:luminance" maskUnits="userSpaceOnUse" x="29" y="0" width="134" height="13">
<path d="M156.858 6.22887e-06C159.832 6.37372e-06 162.242 2.6863 162.242 6.00001V13H29V0L156.858 6.22887e-06Z" fill="white"/>
</mask>
<g mask="url(#mask2_80_2)">
<path d="M162.242 14H29V12H162.242V14Z" fill="#292929"/>
</g>
<path d="M128.729 21.5H47.2551C45.8744 21.5 44.7551 22.6193 44.7551 24V42.5C44.7551 43.8807 45.8744 45 47.2551 45H128.729C130.11 45 131.229 43.8807 131.229 42.5V24C131.229 22.6193 130.11 21.5 128.729 21.5Z" fill="#262626" stroke="#292929"/>
<path d="M128.729 51.5H47.2551C45.8744 51.5 44.7551 52.6193 44.7551 54V72.5C44.7551 73.8807 45.8744 75 47.2551 75H128.729C130.11 75 131.229 73.8807 131.229 72.5V54C131.229 52.6193 130.11 51.5 128.729 51.5Z" fill="#262626" stroke="#292929"/>
<path d="M71.4225 28H53.6907C53.2765 28 52.9407 28.3358 52.9407 28.75C52.9407 29.1642 53.2765 29.5 53.6907 29.5H71.4225C71.8367 29.5 72.1725 29.1642 72.1725 28.75C72.1725 28.3358 71.8367 28 71.4225 28Z" fill="#E5E5E5"/>
<path d="M71.4225 56.5H53.6907C53.2765 56.5 52.9407 56.8358 52.9407 57.25C52.9407 57.6642 53.2765 58 53.6907 58H71.4225C71.8367 58 72.1725 57.6642 72.1725 57.25C72.1725 56.8358 71.8367 56.5 71.4225 56.5Z" fill="#E5E5E5"/>
<path d="M96.858 28H79.1262C78.712 28 78.3762 28.3358 78.3762 28.75C78.3762 29.1642 78.712 29.5 79.1262 29.5H96.858C97.2722 29.5 97.608 29.1642 97.608 28.75C97.608 28.3358 97.2722 28 96.858 28Z" fill="#E5E5E5"/>
<path d="M96.858 56.5H79.1262C78.712 56.5 78.3762 56.8358 78.3762 57.25C78.3762 57.6642 78.712 58 79.1262 58H96.858C97.2722 58 97.608 57.6642 97.608 57.25C97.608 56.8358 97.2722 56.5 96.858 56.5Z" fill="#E5E5E5"/>
<path d="M121.673 33.25H79.1262C78.712 33.25 78.3762 33.5858 78.3762 34C78.3762 34.4142 78.712 34.75 79.1262 34.75H121.673C122.088 34.75 122.423 34.4142 122.423 34C122.423 33.5858 122.088 33.25 121.673 33.25Z" fill="#E5E5E5"/>
<path d="M121.673 61.75H79.1262C78.712 61.75 78.3762 62.0858 78.3762 62.5C78.3762 62.9142 78.712 63.25 79.1262 63.25H121.673C122.088 63.25 122.423 62.9142 122.423 62.5C122.423 62.0858 122.088 61.75 121.673 61.75Z" fill="#E5E5E5"/>
<path d="M50.2622 5H34.7378C33.778 5 33 5.67157 33 6.5C33 7.32843 33.778 8 34.7378 8H50.2622C51.222 8 52 7.32843 52 6.5C52 5.67157 51.222 5 50.2622 5Z" fill="#CCCCCC"/>
<path d="M73.3537 5H58.6463C57.7371 5 57 5.67157 57 6.5C57 7.32843 57.7371 8 58.6463 8H73.3537C74.2629 8 75 7.32843 75 6.5C75 5.67157 74.2629 5 73.3537 5Z" fill="#262626"/>
<path d="M21.3537 5H6.64634C5.73709 5 5 5.67157 5 6.5C5 7.32843 5.73709 8 6.64634 8H21.3537C22.2629 8 23 7.32843 23 6.5C23 5.67157 22.2629 5 21.3537 5Z" fill="#262626"/>
<path d="M21.3537 12H6.64634C5.73709 12 5 12.6716 5 13.5C5 14.3284 5.73709 15 6.64634 15H21.3537C22.2629 15 23 14.3284 23 13.5C23 12.6716 22.2629 12 21.3537 12Z" fill="#262626"/>
<path d="M21.3537 19H6.64634C5.73709 19 5 19.6716 5 20.5C5 21.3284 5.73709 22 6.64634 22H21.3537C22.2629 22 23 21.3284 23 20.5C23 19.6716 22.2629 19 21.3537 19Z" fill="#262626"/>
<path d="M21.3537 26H6.64634C5.73709 26 5 26.6716 5 27.5C5 28.3284 5.73709 29 6.64634 29H21.3537C22.2629 29 23 28.3284 23 27.5C23 26.6716 22.2629 26 21.3537 26Z" fill="#262626"/>
<path d="M21.3537 33H6.64634C5.73709 33 5 33.6716 5 34.5C5 35.3284 5.73709 36 6.64634 36H21.3537C22.2629 36 23 35.3284 23 34.5C23 33.6716 22.2629 33 21.3537 33Z" fill="#262626"/>
<path d="M21.3537 40H6.64634C5.73709 40 5 40.6716 5 41.5C5 42.3284 5.73709 43 6.64634 43H21.3537C22.2629 43 23 42.3284 23 41.5C23 40.6716 22.2629 40 21.3537 40Z" fill="#262626"/>
<path d="M21.3537 47H6.64634C5.73709 47 5 47.6716 5 48.5C5 49.3284 5.73709 50 6.64634 50H21.3537C22.2629 50 23 49.3284 23 48.5C23 47.6716 22.2629 47 21.3537 47Z" fill="#262626"/>
<path d="M95.3537 5H80.6463C79.7371 5 79 5.67157 79 6.5C79 7.32843 79.7371 8 80.6463 8H95.3537C96.2629 8 97 7.32843 97 6.5C97 5.67157 96.2629 5 95.3537 5Z" fill="#262626"/>
<path d="M121.673 28H102.673C102.259 28 101.923 28.3358 101.923 28.75C101.923 29.1642 102.259 29.5 102.673 29.5H121.673C122.087 29.5 122.423 29.1642 122.423 28.75C122.423 28.3358 122.087 28 121.673 28Z" fill="#E5E5E5"/>
<path d="M8.11719 78.875H6.36719C5.8149 78.875 5.36719 79.3227 5.36719 79.875V81.625C5.36719 82.1773 5.8149 82.625 6.36719 82.625H8.11719C8.66947 82.625 9.11719 82.1773 9.11719 81.625V79.875C9.11719 79.3227 8.66947 78.875 8.11719 78.875Z" fill="#4D4D4D"/>
</g>
<path d="M156.242 0.5H6.74219C3.70462 0.5 1.24219 2.96243 1.24219 6V82C1.24219 85.0376 3.70462 87.5 6.74219 87.5H156.242C159.28 87.5 161.742 85.0376 161.742 82V6C161.742 2.96243 159.28 0.5 156.242 0.5Z" stroke="#292929"/>
</g>
<defs>
<clipPath id="clip0_80_2">
<rect width="163" height="88" fill="white"/>
</clipPath>
</defs>
</svg>
