<svg width="362" height="144" viewBox="0 0 362 144" fill="none" xmlns="http://www.w3.org/2000/svg">
<path d="M304 144C296.692 144 289.716 142.669 283.072 140.006C276.429 137.342 270.25 133.282 264.536 127.822C258.823 122.363 254.305 114.84 250.983 105.254C247.661 95.6671 246 84.6155 246 72.0999C246 59.5842 247.661 48.5326 250.983 38.9459C254.305 29.3592 258.823 21.8367 264.536 16.3773C270.25 10.9178 276.429 6.85747 283.072 4.19417C289.716 1.39806 296.692 0 304 0C311.441 0 318.484 1.39806 325.127 4.19417C331.771 6.85747 337.883 10.9178 343.464 16.3773C349.178 21.8367 353.696 29.3592 357.017 38.9459C360.34 48.5326 362 59.5842 362 72.0999C362 84.6155 360.34 95.6671 357.017 105.254C353.696 114.84 349.178 122.363 343.464 127.822C337.883 133.282 331.771 137.342 325.127 140.006C318.484 142.669 311.441 144 304 144ZM304 113.043C313.036 113.043 319.546 109.315 323.533 101.859C327.652 94.2691 329.711 84.3498 329.711 72.0999C329.711 59.8499 327.652 49.9306 323.533 42.3412C319.414 34.7517 312.903 30.957 304 30.957C295.098 30.957 288.587 34.7517 284.467 42.3412C280.481 49.9306 278.488 59.8499 278.488 72.0999C278.488 84.3498 280.481 94.2691 284.467 101.859C288.587 109.315 295.098 113.043 304 113.043Z" fill="currentColor"/>
<path d="M178 144C170.692 144 163.716 142.669 157.072 140.006C150.429 137.342 144.25 133.282 138.536 127.822C132.823 122.363 128.305 114.84 124.983 105.254C121.661 95.6671 120 84.6155 120 72.0999C120 59.5842 121.661 48.5326 124.983 38.9459C128.305 29.3592 132.823 21.8367 138.536 16.3773C144.25 10.9178 150.429 6.85747 157.072 4.19417C163.716 1.39806 170.692 0 178 0C185.441 0 192.484 1.39806 199.127 4.19417C205.771 6.85747 211.883 10.9178 217.464 16.3773C223.178 21.8367 227.696 29.3592 231.017 38.9459C234.34 48.5326 236 59.5842 236 72.0999C236 84.6155 234.34 95.6671 231.017 105.254C227.696 114.84 223.178 122.363 217.464 127.822C211.883 133.282 205.771 137.342 199.127 140.006C192.484 142.669 185.441 144 178 144ZM178 113.043C187.036 113.043 193.546 109.315 197.533 101.859C201.652 94.2691 203.711 84.3498 203.711 72.0999C203.711 59.8499 201.652 49.9306 197.533 42.3412C193.414 34.7517 186.903 30.957 178 30.957C169.098 30.957 162.587 34.7517 158.467 42.3412C154.481 49.9306 152.488 59.8499 152.488 72.0999C152.488 84.3498 154.481 94.2691 158.467 101.859C162.587 109.315 169.098 113.043 178 113.043Z" fill="currentColor"/>
<path d="M5.7631 -3.13669e-06H99.4448V26.79H35.8314V48.6458C38.6921 47.8789 41.5737 47.2937 44.4761 46.8901C47.3785 46.4663 50.3958 46.2544 53.5279 46.2544C71.3392 46.2544 85.2041 50.563 95.1224 59.1802C105.041 67.7973 110 79.7948 110 95.1726C110 110.429 104.602 122.386 93.8069 131.044C83.0116 139.681 68.0192 144 48.8297 144C40.5401 144 32.3339 143.223 24.2113 141.669C16.0886 140.115 8.01822 137.764 0 134.616V105.949C7.95558 110.369 15.504 113.688 22.6452 115.908C29.7864 118.108 36.5309 119.208 42.8787 119.208C52.0036 119.208 59.1866 117.049 64.4277 112.73C69.6896 108.411 72.3206 102.559 72.3206 95.1726C72.3206 87.7259 69.6896 81.8634 64.4277 77.585C59.1866 73.2865 52.0036 71.1373 42.8787 71.1373C37.4497 71.1373 31.6657 71.8234 25.5268 73.1957C19.4087 74.5478 12.8208 76.6365 5.7631 79.4618V-3.13669e-06Z" fill="currentColor"/>
</svg>
