<svg width="162" height="88" viewBox="0 0 162 88" fill="none" xmlns="http://www.w3.org/2000/svg">
<g clip-path="url(#clip0_80_88)">
<mask id="mask0_80_88" style="mask-type:luminance" maskUnits="userSpaceOnUse" x="0" y="0" width="162" height="88">
<path d="M155.742 0H6.24219C2.92848 0 0.242188 2.68629 0.242188 6V82C0.242188 85.3137 2.92848 88 6.24219 88H155.742C159.056 88 161.742 85.3137 161.742 82V6C161.742 2.68629 159.056 0 155.742 0Z" fill="white"/>
</mask>
<g mask="url(#mask0_80_88)">
<path d="M155.742 0H6.24219C2.92848 0 0.242188 2.68629 0.242188 6V82C0.242188 85.3137 2.92848 88 6.24219 88H155.742C159.056 88 161.742 85.3137 161.742 82V6C161.742 2.68629 159.056 0 155.742 0Z" fill="white"/>
<path d="M0.242188 6C0.242188 2.68629 2.92848 0 6.24219 0H13.2422V88H6.24219C2.92848 88 0.242188 85.3137 0.242188 82V6Z" fill="white"/>
<mask id="mask1_80_88" style="mask-type:luminance" maskUnits="userSpaceOnUse" x="0" y="0" width="28" height="88">
<path d="M0.242188 6C0.242188 2.68629 5.978 0 13.0535 0H28V88H13.0535C5.978 88 0.242188 85.3137 0.242188 82V6Z" fill="white"/>
</mask>
<g mask="url(#mask1_80_88)">
<path d="M30.1352 0V88H25.8648V0H30.1352Z" fill="#E6E8EB"/>
</g>
<path d="M156.586 6.22887e-06C159.576 6.37372e-06 162 2.6863 162 6V13H28V0L156.586 6.22887e-06Z" fill="white"/>
<mask id="mask2_80_88" style="mask-type:luminance" maskUnits="userSpaceOnUse" x="28" y="0" width="134" height="13">
<path d="M156.338 6.22887e-06C159.323 6.37372e-06 161.742 2.6863 161.742 6.00001V13H28V0L156.338 6.22887e-06Z" fill="white"/>
</mask>
<g mask="url(#mask2_80_88)">
<path d="M161.742 14H28V12H161.742V14Z" fill="#E6E8EB"/>
</g>
<path d="M128.229 21.5H46.7551C45.3744 21.5 44.2551 22.6193 44.2551 24V42.5C44.2551 43.8807 45.3744 45 46.7551 45H128.229C129.61 45 130.729 43.8807 130.729 42.5V24C130.729 22.6193 129.61 21.5 128.229 21.5Z" fill="#F5F5F5" stroke="#E6E8EB"/>
<path d="M128.229 51.5H46.7551C45.3744 51.5 44.2551 52.6193 44.2551 54V72.5C44.2551 73.8807 45.3744 75 46.7551 75H128.229C129.61 75 130.729 73.8807 130.729 72.5V54C130.729 52.6193 129.61 51.5 128.229 51.5Z" fill="#F5F5F5" stroke="#E6E8EB"/>
<path d="M70.9225 28H53.1907C52.7765 28 52.4407 28.3358 52.4407 28.75C52.4407 29.1642 52.7765 29.5 53.1907 29.5H70.9225C71.3367 29.5 71.6725 29.1642 71.6725 28.75C71.6725 28.3358 71.3367 28 70.9225 28Z" fill="#171717"/>
<path d="M70.9225 56.5H53.1907C52.7765 56.5 52.4407 56.8358 52.4407 57.25C52.4407 57.6642 52.7765 58 53.1907 58H70.9225C71.3367 58 71.6725 57.6642 71.6725 57.25C71.6725 56.8358 71.3367 56.5 70.9225 56.5Z" fill="#171717"/>
<path d="M96.358 28H78.6262C78.212 28 77.8762 28.3358 77.8762 28.75C77.8762 29.1642 78.212 29.5 78.6262 29.5H96.358C96.7722 29.5 97.108 29.1642 97.108 28.75C97.108 28.3358 96.7722 28 96.358 28Z" fill="#171717"/>
<path d="M96.358 56.5H78.6262C78.212 56.5 77.8762 56.8358 77.8762 57.25C77.8762 57.6642 78.212 58 78.6262 58H96.358C96.7722 58 97.108 57.6642 97.108 57.25C97.108 56.8358 96.7722 56.5 96.358 56.5Z" fill="#171717"/>
<path d="M121.173 33.25H78.6262C78.212 33.25 77.8762 33.5858 77.8762 34C77.8762 34.4142 78.212 34.75 78.6262 34.75H121.173C121.588 34.75 121.923 34.4142 121.923 34C121.923 33.5858 121.588 33.25 121.173 33.25Z" fill="#171717"/>
<path d="M121.173 61.75H78.6262C78.212 61.75 77.8762 62.0858 77.8762 62.5C77.8762 62.9142 78.212 63.25 78.6262 63.25H121.173C121.588 63.25 121.923 62.9142 121.923 62.5C121.923 62.0858 121.588 61.75 121.173 61.75Z" fill="#171717"/>
<path d="M49.2622 5H33.7378C32.778 5 32 5.67157 32 6.5C32 7.32843 32.778 8 33.7378 8H49.2622C50.222 8 51 7.32843 51 6.5C51 5.67157 50.222 5 49.2622 5Z" fill="#171717"/>
<path d="M72.3537 5H57.6463C56.7371 5 56 5.67157 56 6.5C56 7.32843 56.7371 8 57.6463 8H72.3537C73.2629 8 74 7.32843 74 6.5C74 5.67157 73.2629 5 72.3537 5Z" fill="#F5F5F5"/>
<path d="M21.3537 5H6.64634C5.73709 5 5 5.67157 5 6.5C5 7.32843 5.73709 8 6.64634 8H21.3537C22.2629 8 23 7.32843 23 6.5C23 5.67157 22.2629 5 21.3537 5Z" fill="#F5F5F5"/>
<path d="M21.3537 5H6.64634C5.73709 5 5 5.67157 5 6.5C5 7.32843 5.73709 8 6.64634 8H21.3537C22.2629 8 23 7.32843 23 6.5C23 5.67157 22.2629 5 21.3537 5Z" fill="#F5F5F5"/>
<path d="M21.3537 12H6.64634C5.73709 12 5 12.6716 5 13.5C5 14.3284 5.73709 15 6.64634 15H21.3537C22.2629 15 23 14.3284 23 13.5C23 12.6716 22.2629 12 21.3537 12Z" fill="#F5F5F5"/>
<path d="M21.3537 19H6.64634C5.73709 19 5 19.6716 5 20.5C5 21.3284 5.73709 22 6.64634 22H21.3537C22.2629 22 23 21.3284 23 20.5C23 19.6716 22.2629 19 21.3537 19Z" fill="#F5F5F5"/>
<path d="M21.3537 26H6.64634C5.73709 26 5 26.6716 5 27.5C5 28.3284 5.73709 29 6.64634 29H21.3537C22.2629 29 23 28.3284 23 27.5C23 26.6716 22.2629 26 21.3537 26Z" fill="#F5F5F5"/>
<path d="M21.3537 33H6.64634C5.73709 33 5 33.6716 5 34.5C5 35.3284 5.73709 36 6.64634 36H21.3537C22.2629 36 23 35.3284 23 34.5C23 33.6716 22.2629 33 21.3537 33Z" fill="#F5F5F5"/>
<path d="M21.3537 40H6.64634C5.73709 40 5 40.6716 5 41.5C5 42.3284 5.73709 43 6.64634 43H21.3537C22.2629 43 23 42.3284 23 41.5C23 40.6716 22.2629 40 21.3537 40Z" fill="#F5F5F5"/>
<path d="M21.3537 47H6.64634C5.73709 47 5 47.6716 5 48.5C5 49.3284 5.73709 50 6.64634 50H21.3537C22.2629 50 23 49.3284 23 48.5C23 47.6716 22.2629 47 21.3537 47Z" fill="#F5F5F5"/>
<path d="M95.2622 5H79.7378C78.778 5 78 5.67157 78 6.5C78 7.32843 78.778 8 79.7378 8H95.2622C96.222 8 97 7.32843 97 6.5C97 5.67157 96.222 5 95.2622 5Z" fill="#F5F5F5"/>
<path d="M121.173 28H102.173C101.759 28 101.423 28.3358 101.423 28.75C101.423 29.1642 101.759 29.5 102.173 29.5H121.173C121.587 29.5 121.923 29.1642 121.923 28.75C121.923 28.3358 121.587 28 121.173 28Z" fill="#171717"/>
<path d="M7.61719 78.875H5.86719C5.3149 78.875 4.86719 79.3227 4.86719 79.875V81.625C4.86719 82.1773 5.3149 82.625 5.86719 82.625H7.61719C8.16947 82.625 8.61719 82.1773 8.61719 81.625V79.875C8.61719 79.3227 8.16947 78.875 7.61719 78.875Z" fill="#F5F5F5"/>
</g>
<path d="M155.742 0.5H6.24219C3.20462 0.5 0.742188 2.96243 0.742188 6V82C0.742188 85.0376 3.20462 87.5 6.24219 87.5H155.742C158.78 87.5 161.242 85.0376 161.242 82V6C161.242 2.96243 158.78 0.5 155.742 0.5Z" stroke="#E6E8EB"/>
</g>
<defs>
<clipPath id="clip0_80_88">
<rect width="162" height="88" fill="white"/>
</clipPath>
</defs>
</svg>
