<svg width="972" height="352" viewBox="0 0 972 352" fill="none" xmlns="http://www.w3.org/2000/svg">
<path d="M239.821 0.526864C262.645 0.430864 285.469 0.497543 308.292 0.726876L308.12 192.963L520.977 192.904L575.545 192.834C588.456 192.832 601.885 193.64 614.639 191.526C627.111 189.459 638.173 184.336 647.193 175.404C660.941 161.791 667.24 142.362 667.178 123.287C667.12 105.309 661.116 88.1379 648.183 75.3649C630.016 57.4239 605.782 56.7589 581.852 56.6599C571.262 56.5932 560.671 56.6019 550.081 56.6859L550.004 178.22L480.031 178.173C479.585 118.988 479.446 59.8015 479.614 0.612863L489.96 0.538858L566.881 0.604867C618.849 0.757867 663.737 -1.37613 704.066 38.0719C727.703 61.1929 739.99 91.9819 740.129 124.936C740.261 156.189 729.656 186.208 707.299 208.503C687.525 228.223 664.233 238.945 637.147 244.42C614.062 249.087 590.245 248.274 566.814 248.283L493.561 248.255L238.766 248.208L238.794 82.0009L238.684 27.1129C238.674 19.2249 237.812 10.1719 238.825 2.38587C238.97 1.27587 238.883 1.21386 239.821 0.526864Z" fill="currentColor"/>
<path d="M722.187 0.699986C745.396 -0.113014 768.925 0.550981 792.167 0.612981L834.093 0.756993C858.811 0.858993 882.633 1.29099 906.457 8.77399C928.58 15.723 948.577 29.24 959.434 50.16C970.057 70.63 971.926 97.875 964.953 119.799C957.057 144.624 938.752 159.185 916.412 170.68C922.696 180.303 970.586 240.587 971.52 244.631C971.856 246.081 971.289 246.666 970.549 247.802C963.177 249.764 947.752 248.537 939.75 248.504L897.224 248.535C891.686 244.003 887.188 236.039 882.826 230.254C873.382 217.908 864.029 205.493 854.768 193.01L847.952 183.686C834.152 183.504 820.325 183.696 806.522 183.711L806.669 224.694C806.709 231.89 807.271 239.52 806.506 246.668C805.01 248.326 801.67 248.488 799.549 248.585C787.337 249.144 774.834 248.592 762.591 248.571C756.911 248.561 749.349 249.327 743.914 248.488C742.646 248.292 741.898 247.813 740.969 246.966C739.082 241.807 738.352 200.819 737.951 191.806C748.509 173.67 754.739 155.433 757.538 134.649L817.719 134.544C833.245 134.617 850.299 136.186 865.518 133.249C873.806 131.648 882.044 128.503 888.221 122.574C895.33 115.751 898.072 106.636 898.193 96.975C898.324 86.464 895.7 75.849 888.104 68.202C882.297 62.356 874.065 58.859 866.087 57.241C852.556 54.499 836.213 55.898 822.335 55.914L750.283 55.899C746.771 34.761 735.838 16.839 722.187 0.699986Z" fill="currentColor"/>
<path d="M30.4569 0.389264C41.7984 -0.327736 53.5566 0.299277 64.936 0.309277L134.258 0.34126L193.222 0.265271C203.127 0.252271 213.513 -0.422737 223.348 0.432263C224.877 0.565263 226.084 1.12427 227.193 2.16227C228.277 3.17727 228.907 4.07527 228.902 5.62227C228.886 10.3183 214.281 43.9233 211.326 49.5633C210.261 51.5963 208.967 53.5643 207.338 55.1893C204.885 57.6353 202.01 58.6843 198.648 59.2643C192.583 60.3113 185.546 59.5323 179.384 59.4823C167.816 59.3876 156.248 59.3513 144.68 59.3733C143.977 104.336 144.688 149.437 144.686 194.415C144.659 212.38 144.728 230.344 144.892 248.307L75.5222 248.364L75.5322 59.3383C51.4518 59.1473 27.1172 60.2943 3.07277 59.2713C2.19277 58.3893 0.70207 57.1583 0.31867 55.9473C-0.10993 54.5943 -0.0888292 53.3323 0.277971 51.9683C2.25827 44.5993 6.52027 36.8932 9.57607 29.8442C12.7378 22.5502 15.4765 14.2613 19.5266 7.46126C22.0566 3.21325 25.7997 1.55126 30.4569 0.389264Z" fill="currentColor"/>
<path fill-rule="evenodd" clip-rule="evenodd" d="M432.705 274.146C428.868 274.237 425.309 274.322 422.246 274.337C422.02 287.62 422.076 300.908 422.133 314.197C422.184 326.06 422.235 337.923 422.084 349.783L444.503 349.718L444.569 330.812L460.716 330.815C461.838 332.34 463.009 333.875 464.19 335.424C467.741 340.079 471.386 344.857 474.065 349.862C476.318 349.872 478.573 349.874 480.828 349.875C486.267 349.878 491.709 349.881 497.141 350.015L497.904 349.449C494.906 345.522 491.706 341.758 488.508 337.994C485.694 334.684 482.882 331.374 480.206 327.955C487.939 324.357 494.128 319.658 497.024 311.234C499.268 304.705 498.883 297.078 495.648 290.944C491.752 283.558 484.351 278.569 476.455 276.324C466.001 273.352 447.339 273.797 432.705 274.146ZM448.857 289.628C447.32 289.691 445.858 289.751 444.521 289.768C444.52 292.508 444.51 295.248 444.501 297.988C444.48 303.931 444.46 309.875 444.523 315.815C446.01 315.833 447.529 315.885 449.065 315.938C457.074 316.213 465.55 316.505 472.319 312C474.76 309.326 476.302 306.393 476.191 302.668C476.091 299.297 474.454 295.708 471.856 293.538C466.314 288.912 456.613 289.31 448.857 289.628Z" fill="currentColor"/>
<path d="M526.113 274.199L544.045 274.289C553.96 289.768 564.496 305.152 575.881 319.583C581.623 310.464 587.997 301.809 594.042 292.895C598.147 286.84 602.032 279.885 606.836 274.393L624.096 274.331C624.359 299.666 624.406 325.001 624.239 350.337C617.368 350.267 610.497 350.232 603.626 350.232L603.646 341.345L603.815 307.043C596.311 318.776 588.106 330.157 580.303 341.704C577.188 342.394 574.079 342.255 570.908 342.215C562.52 331.234 555.225 319.192 546.521 308.5C546.889 322.303 546.768 336.147 546.841 349.956L526.062 349.858L526.113 274.199Z" fill="currentColor"/>
<path d="M327.459 274.282L393.219 274.324L393.297 289.164C378.987 289.226 364.676 289.212 350.365 289.124L350.305 304.663L387.612 304.652L387.554 319.194L353.96 319.212C352.633 319.173 351.492 319.248 350.179 319.448C349.308 324.355 349.909 330.162 349.911 335.177C365.104 335.362 380.323 335.167 395.519 335.155L395.46 349.803C372.881 350.548 350.18 349.959 327.588 349.771L327.459 274.282Z" fill="currentColor"/>
<path d="M681.647 272.973C694.856 271.883 708.057 273.465 720.09 279.232C717.581 283.996 715.552 289.081 713.368 294.003C709.206 292.263 705.003 290.772 700.589 289.808C694.846 288.554 682.534 286.806 677.469 290.349C675.355 291.827 673.677 293.678 673.277 296.268C674.96 305.459 707.306 305.269 717.833 314.323C721.159 317.183 723.166 320.888 723.314 325.311C723.514 331.273 721.569 337.153 717.413 341.487C709.542 349.697 697.279 351.664 686.46 351.955C673.706 352.047 661.182 350.036 650.132 343.341C652.314 338.464 654.646 333.66 657.13 328.93C658.213 329.577 659.317 330.185 660.441 330.756C661.566 331.327 662.709 331.859 663.87 332.352C665.031 332.845 666.207 333.297 667.399 333.71C668.591 334.122 669.796 334.493 671.013 334.824C672.231 335.154 673.458 335.442 674.694 335.688C675.931 335.934 677.175 336.137 678.426 336.298C679.677 336.459 680.932 336.578 682.191 336.653C683.45 336.728 684.71 336.76 685.971 336.749C690.35 336.74 696.615 336.524 699.771 333.11C700.837 331.956 701.339 330.419 701.197 328.847C700.585 322.054 678.564 319.792 673.086 318.294C668.288 316.981 663.455 315.218 659.389 312.29C655.275 309.327 652.473 305.231 651.709 300.168C650.94 295.065 652.468 289.33 655.66 285.29C661.957 277.32 671.953 274.188 681.647 272.973Z" fill="currentColor"/>
<path d="M231.311 274.248C255.339 273.61 279.524 274.22 303.566 274.263L303.587 289.8L279.067 289.802L279.002 325.54L278.926 349.823C271.482 349.908 264.031 349.82 256.586 349.803L256.572 289.997C248.215 289.492 239.684 289.796 231.306 289.763L231.311 274.248Z" fill="currentColor"/>
</svg>
